<svg viewBox="0 0 2500.01 2500" xmlns="http://www.w3.org/2000/svg"><g fill="#f3ba2f"><path d="m764.48 1050.52 485.5-485.49 485.75 485.74 282.5-282.5L1249.98 0 481.99 768.02zM0 1249.96l282.51-282.51L565 1249.94l-282.51 282.51zm764.48 199.51 485.5 485.49 485.74-485.72 282.65 282.35-.14.15L1249.98 2500l-768.01-768-.4-.4 282.91-282.12m1170.53-199.36 282.51-282.51 282.49 282.49-282.51 282.51z"/><path d="M1536.52 1249.85h.12l-286.66-286.66-211.85 211.85h-.01l-24.34 24.35-50.2 50.21-.4.39.4.41 286.4 286.41 286.66-286.66.14-.16z"/></g></svg>
